<?xml version="1.0" encoding="utf-8"?>
<svg version="1.1" id="Слой_1" xmlns="http://www.w3.org/2000/svg" x="0px" y="0px"
	 viewBox="0 0 100 100" style="enable-background:new 0 0 100 100;" xml:space="preserve">
<circle cx="50" cy="28.2" r="24.7"/>
<polygon points="47.2,68.3 31.2,68.3 31.2,52 19.8,52 19.8,68.3 3.8,68.3 3.8,79.8 19.8,79.8 19.8,95.5 31.2,95.5 31.2,79.8 
	47.2,79.8 "/>
<path d="M35.2,64.3h12h4v4v11.5v4h-4h-12v11.7v0.9h61.5C91,75.9,72.3,60.9,50,60.9c-5.1,0-10.1,0.8-14.8,2.3V64.3z"/>
<path d="M15.8,95.5V83.8H8.8c-2.4,3.9-4.3,8.1-5.5,12.6h12.5V95.5z"/>
</svg>
